<svg xmlns="http://www.w3.org/2000/svg" xmlns:xlink="http://www.w3.org/1999/xlink" xml:space="preserve" version="1.1" style="shape-rendering:geometricPrecision;text-rendering:geometricPrecision;image-rendering:optimizeQuality;" viewBox="0 0 333 416.25" x="0px" y="0px" fill-rule="evenodd" clip-rule="evenodd"><defs><style type="text/css">
   
    .str1 {stroke:black;stroke-width:6.94488}
    .str0 {stroke:black;stroke-width:6.66535;stroke-linecap:round;stroke-linejoin:round}
    .fil0 {fill:none}
    .fil1 {fill:black}
   
  </style></defs><g><path class="fil0 str0" d="M27 294l288 0c-27,-92 -157,-24 -88,-134 14,-24 5,-22 5,-53 -1,-91 -119,-90 -122,-6 -1,19 -6,40 1,53 71,129 -54,41 -84,140z"/><path class="fil1" d="M-1498 602c13,-1 21,-8 27,6 7,15 -7,14 -7,27l0 30 -14 0c0,-76 -11,-12 -6,-63zm-20 -110c0,-45 66,-45 66,0l0 50 -66 0 0 -50zm-40 50c-45,10 -34,49 -34,123 0,26 17,40 37,40l140 0c50,0 37,-68 37,-123 0,-26 -13,-36 -34,-40 0,-47 5,-99 -49,-118 -37,-13 -70,2 -86,32 -15,26 -11,48 -11,86z"/><path class="fil1" d="M-1152 618c0,52 -8,87 24,87l166 0c32,0 24,-35 24,-87 0,-46 -39,-40 -67,-40 -14,0 -27,37 -40,47 -13,-10 -26,-47 -40,-47 -28,0 -67,-6 -67,40z"/><path class="fil1" d="M-1152 218c0,43 -7,74 24,74l166 0c31,0 24,-31 24,-74 0,-37 -26,-53 -64,-53 -13,59 -73,59 -86,0 -38,0 -64,16 -64,53z"/><path class="fil1" d="M-678 112c0,34 33,67 36,110l74 0c5,-58 67,-103 15,-159 -33,-35 -98,-24 -117,20 -2,4 -8,26 -8,29z"/><path class="fil1" d="M-1005 -292c-3,15 -1,16 -8,29 -5,10 -10,15 -18,22 -67,60 -181,-39 -98,-118 34,-33 117,-23 126,53 2,18 0,5 -2,14zm-183 -10c0,106 141,151 200,57 63,-101 -72,-221 -166,-133 -17,16 -34,46 -34,76z"/><path class="fil1" d="M-1445 -292c-5,22 -3,31 -26,51 -30,27 -77,23 -108,-10 -65,-67 45,-181 118,-98 10,11 16,27 18,43 2,18 0,5 -2,14zm-183 -10c0,47 29,82 62,98 53,27 111,2 138,-41 5,-9 8,-16 11,-29 25,-105 -99,-177 -177,-104 -17,16 -34,46 -34,76z"/><path class="fil1" d="M-1628 215c0,44 60,114 132,52 10,-8 35,-31 38,-42 -22,0 -33,-2 -50,-3 -37,55 -91,17 -76,-19 6,-18 64,-78 86,-78 16,0 29,13 33,27 15,-4 21,-19 33,-27 -9,-13 -11,-18 -26,-27 -55,-35 -92,7 -121,36 -23,23 -49,45 -49,81z"/><path class="fil1" d="M-1512 72c22,0 34,2 50,3 38,-56 91,-18 77,19 -8,20 -24,30 -37,44 -11,10 -31,34 -50,34 -16,0 -29,-14 -33,-27 -15,4 -21,19 -33,27 14,21 31,40 66,40 40,0 88,-53 112,-82 8,-8 8,-10 12,-21 26,-72 -55,-140 -126,-80 -8,7 -13,13 -20,20 -8,8 -15,12 -18,23z"/><path class="fil1" d="M-1062 528l34 0c-4,8 -6,14 -17,14 -11,0 -13,-6 -17,-14zm37 -66c31,27 21,41 17,60 -33,-17 -44,-16 -74,0 -13,-58 -2,-13 38,-42l19 -18zm-83 30c0,35 27,70 53,70 24,0 39,2 57,-23 52,-69 -32,-166 -93,-97 -12,14 -17,32 -17,50z"/><path class="fil1" d="M-655 498c0,-13 25,-22 30,-40 21,14 15,34 70,34 0,71 -100,60 -100,6zm-23 -6c0,29 27,70 66,70 25,0 41,-2 60,-21 44,-44 7,-123 -53,-123 -38,0 -73,36 -73,74z"/><path class="fil1" d="M-1118 78c0,32 30,68 60,70l0 -6c-38,-1 -54,-63 -14,-90 6,20 42,40 57,40l20 0c0,25 -11,49 -37,50l0 6c30,-2 60,-38 60,-70 0,-38 -35,-73 -73,-73 -38,0 -73,35 -73,73z"/><path class="fil1" d="M-712 618c0,102 -14,87 100,87 -4,-20 -26,-98 -26,-113 0,-2 7,-10 10,-14 -46,0 -84,-7 -84,40z"/><path class="fil1" d="M-572 592c0,15 -22,93 -26,113 114,0 100,14 100,-87 0,-47 -38,-40 -84,-40 3,4 10,12 10,14z"/><path class="fil1" d="M-1015 -192c26,7 59,70 83,70 12,0 30,-15 30,-26 0,-29 -63,-61 -70,-87 -14,4 -11,10 -22,21 -11,11 -17,8 -21,22z"/><path class="fil1" d="M-1455 -192c26,7 59,70 83,70 12,0 30,-15 30,-26 0,-29 -63,-61 -70,-87 -14,4 -11,10 -22,21 -11,11 -17,8 -21,22z"/><path class="fil1" d="M-605 292c13,0 21,-12 21,-12 13,-12 13,-9 16,-18 -10,-15 -15,-10 -60,-10 -7,0 -10,3 -12,8 -5,12 27,32 35,32z"/><path class="fil1" d="M-624 596c4,19 15,50 16,72l6 0c1,-22 12,-53 17,-73l-19 -17 -20 18z"/><path class="fil1" d="M-1582 -312l0 14 20 0c0,-27 17,-44 44,-44l0 -20c-41,0 -64,29 -64,50z"/><path class="fil1" d="M-642 235c0,16 23,10 64,10 17,0 10,-20 -4,-20 -18,0 -60,-5 -60,10z"/><path class="fil1" d="M-712 125l14 0c14,0 6,-5 6,-13l0 -10 -20 0 0 23z"/><path class="fil1" d="M-518 112c0,8 -8,13 6,13l14 0 0 -23 -20 0 0 10z"/><path class="fil1" d="M-702 72c11,2 10,4 20,6 5,-15 6,-3 7,-20 -10,-2 -10,-4 -20,-6 -4,15 -5,3 -7,20z"/><polygon class="fil1" points="-615,28 -595,28 -595,5 -615,5 "/><path class="fil1" d="M-535 58c2,11 4,10 7,20 10,-2 9,-4 20,-6 -2,-17 -3,-5 -7,-20 -10,2 -10,4 -20,6z"/><path class="fil1" d="M-535 168c10,3 10,5 20,7 2,-10 4,-10 7,-20 -16,-4 -3,-5 -20,-7 -3,11 -5,10 -7,20z"/><path class="fil1" d="M-702 155c3,10 5,10 7,20 10,-2 10,-4 20,-7 -4,-15 -5,-3 -7,-20 -16,2 -4,3 -20,7z"/><path class="fil1" d="M-665 28c0,8 3,8 7,14 8,-2 13,-4 20,-7l-10 -20c-5,2 -17,7 -17,13z"/><path class="fil1" d="M-572 35c11,2 10,4 20,7 9,-13 13,-15 -10,-27l-10 20z"/><circle class="fil0 str1" cx="149" cy="113" r="11"/><circle class="fil0 str1" cx="193" cy="113" r="11"/><line class="fil0 str1" x1="109" y1="113" x2="137" y2="113"/><line class="fil0 str1" x1="205" y1="113" x2="232" y2="113"/><path class="fil0 str1" d="M158 107c0,0 12,-6 26,1"/></g><text x="0" y="348" fill="#000000" font-size="5px" font-weight="bold" font-family="'Helvetica Neue', Helvetica, Arial-Unicode, Arial, Sans-serif">Created by Angriawan Ditya Zulkarnain</text><text x="0" y="353" fill="#000000" font-size="5px" font-weight="bold" font-family="'Helvetica Neue', Helvetica, Arial-Unicode, Arial, Sans-serif">from the Noun Project</text></svg>