<svg xmlns="http://www.w3.org/2000/svg" xmlns:xlink="http://www.w3.org/1999/xlink" version="1.1" x="0px" y="0px" viewBox="0 0 100 125" enable-background="new 0 0 100 100" xml:space="preserve"><polygon fill="#000000" points="71.224,38.348 69.538,37.901 73.504,41.884 "/><polygon fill="#000000" points="68.332,37.573 66.361,36.917 69.713,40.269 "/><polygon fill="#000000" points="73.771,38.811 72.302,38.55 76.839,43.07 "/><polygon fill="#000000" points="68.816,40.219 65.787,37.19 66.107,38.545 "/><polygon fill="#000000" points="65.544,42.802 65.544,38.966 61.196,37.835 "/><polygon fill="#000000" points="75.891,39.126 74.796,38.966 79.32,43.49 "/><polygon fill="#000000" points="86.768,48.438 82.34,44.011 85.737,48.07 "/><polygon fill="#000000" points="64.993,36.439 64.538,36.223 64.536,36.223 63.438,35.716 63.437,35.714 63.434,35.713   63.029,35.517 65.311,37.782 "/><polygon fill="#000000" points="88.631,49.092 85.512,45.974 88.095,48.911 "/><polygon fill="#000000" points="88.222,57.228 89.412,49.989 88.222,49.587 "/><polygon fill="#000000" points="79.932,39.529 79.913,39.527 80.124,39.738 "/><polygon fill="#000000" points="78.971,39.443 78.578,39.402 81.528,42.353 "/><polygon fill="#000000" points="77.616,39.303 76.86,39.228 81.049,43.404 "/><polygon fill="#000000" points="49.235,23.641 50.764,19.375 49.199,19.375 48.6,23.528 48.983,23.641 "/><polygon fill="#000000" points="60.63,34.788 60.63,37.068 64.62,38.106 "/><polygon fill="#000000" points="89.45,61.527 89.45,53.456 88.25,60.751 "/><polygon fill="#000000" points="51.146,23.641 51.557,23.525 51.07,20.298 49.872,23.641 "/><polygon fill="#000000" points="48.336,19.603 47.23,19.987 46.365,22.263 46.778,22.676 "/><polygon fill="#000000" points="52.754,23.133 52.852,19.963 51.561,19.52 52.136,23.343 "/><polygon fill="#000000" points="46.662,23.398 46.647,23.393 46.038,22.783 44.271,32.475 "/><polygon fill="#000000" points="48.021,23.338 48.382,20.84 47.254,23.065 "/><polygon fill="#000000" points="51.978,24.029 51.974,24.032 51.592,24.14 56.008,35.286 52.955,23.698 51.989,24.027 "/><polygon fill="#000000" points="64.75,42.805 60.315,37.738 58.1,39.955 "/><polygon fill="#000000" points="57.663,31.435 54.174,22.702 53.524,23.352 "/><polygon fill="#000000" points="60.03,34.221 57.109,28.435 60.03,35.742 "/><polygon fill="#000000" points="53.983,20.999 53.915,20.931 53.983,21.116 "/><polygon fill="#000000" points="53.41,21.297 53.368,22.66 53.768,22.261 "/><polygon fill="#000000" points="20.611,72.732 14.527,66.633 20.079,73.41 "/><polygon fill="#000000" points="14.899,56.764 17.072,47.731 14.899,48.534 "/><polygon fill="#000000" points="12.705,60.94 20.488,68.701 14.518,59.712 "/><polygon fill="#000000" points="17.33,46.997 21.025,43.303 16.104,47.451 "/><polygon fill="#000000" points="14.3,59.136 14.3,51.545 12.664,60.244 "/><polygon fill="#000000" points="12.536,57.678 14.208,48.783 12.536,49.38 "/><polygon fill="#000000" points="20.73,45.623 24.196,42.169 19.221,46.233 "/><polygon fill="#000000" points="33.521,38.872 34.128,38.497 34.64,37.985 "/><polygon fill="#000000" points="24.689,43.856 27.691,40.843 22.927,44.645 "/><polygon fill="#000000" points="42.392,39.439 45.01,25.082 40.18,37.228 "/><polygon fill="#000000" points="29.742,48.248 34.534,53.017 34.05,44.254 "/><polygon fill="#000000" points="29.127,41.584 31.183,39.519 27.487,42.426 "/><polygon fill="#000000" points="29.608,47.027 33.536,39.568 29.608,41.995 "/><polygon fill="#000000" points="90.05,50.206 90.05,56.689 90.746,50.443 "/><polygon fill="#000000" points="79.547,73.716 79.016,73.06 68.775,76.482 "/><polygon fill="#000000" points="21.986,71.043 14.895,63.971 21.023,72.221 "/><polygon fill="#000000" points="89.795,62.457 83.658,68.593 90.557,62.928 "/><polygon fill="#000000" points="77.664,71.372 65.703,75.371 78.583,72.521 "/><polygon fill="#000000" points="90.771,55.627 90.068,61.923 90.771,62.356 "/><polygon fill="#000000" points="89.947,49.537 89.711,49.3 89.919,49.527 "/><polygon fill="#000000" points="78.195,71.076 79.144,72.26 86.602,64.802 "/><polygon fill="#000000" points="24.189,69.208 22.889,70.872 36.201,75.331 "/><polygon fill="#000000" points="22.477,71.391 21.519,72.562 34.311,76.84 "/><polygon fill="#000000" points="40.203,74.51 27.807,70.378 39.736,76.459 "/><polygon fill="#000000" points="60.462,79.168 49.041,79.168 60.643,79.894 "/><polygon fill="#000000" points="40.166,77.223 39.82,78.568 54.356,78.568 "/><polygon fill="#000000" points="59.937,74.551 60.405,76.512 73.727,72.057 "/><polygon fill="#000000" points="30.393,46.827 34.015,43.469 34.015,39.947 "/><polygon fill="#000000" points="91.56,62.85 91.56,59.945 91.383,62.736 "/><polygon fill="#000000" points="87.586,66.802 91.365,63.438 91.112,63.276 "/><polygon fill="#000000" points="91.371,50.649 91.371,53.438 91.545,50.705 "/><polygon fill="#000000" points="61.467,80.678 67.257,78.747 61.399,80.426 "/><polygon fill="#000000" points="80.098,73.443 86.533,67.008 79.539,72.752 "/><polygon fill="#000000" points="61.246,79.831 71.771,76.334 61.06,79.085 "/><polygon fill="#000000" points="60.557,77.125 60.907,78.481 73.603,74.237 "/><polygon fill="#000000" points="74.751,75.977 80.138,74.433 79.976,74.24 "/><polygon fill="#000000" points="80.685,74.15 84.348,70.488 80.491,73.92 "/><polygon fill="#000000" points="54.857,80.519 60.863,80.747 60.803,80.519 "/><polygon fill="#000000" points="19.486,74.135 19.678,73.908 16.129,70.359 "/><polygon fill="#000000" points="23.198,39.238 22.526,39.304 18.548,43.282 "/><polygon fill="#000000" points="25.215,38.987 24.248,39.129 19.888,43.477 "/><polygon fill="#000000" points="27.633,38.587 26.36,38.815 21.928,43.248 "/><polygon fill="#000000" points="21.147,39.444 18.391,42.209 21.507,39.408 "/><polygon fill="#000000" points="14.205,46.776 11.69,49.037 12.074,48.907 "/><polygon fill="#000000" points="10.708,50.002 10.708,57.822 11.871,49.609 "/><polygon fill="#000000" points="14.434,48.066 17.653,44.855 13.634,48.352 "/><polygon fill="#000000" points="39.528,37.188 39.528,35.258 36.152,41.045 "/><polygon fill="#000000" points="39.48,79.919 51.426,79.919 39.664,79.184 "/><polygon fill="#000000" points="30.32,37.978 28.874,38.356 24.97,42.246 "/><polygon fill="#000000" points="42.217,40.111 40.051,37.946 39.033,46.232 "/><polygon fill="#000000" points="33.328,37.068 31.779,37.59 28.573,40.809 "/><polygon fill="#000000" points="36.271,35.925 35.854,36.134 35.844,36.137 35.84,36.141 35.05,36.483 33.118,38.425 "/><polygon fill="#000000" points="34.614,42.491 38.713,35.467 34.614,38.875 "/><polygon fill="#000000" points="38.889,79.808 39.075,79.064 28.933,75.673 "/><polygon fill="#000000" points="38.667,80.663 38.733,80.414 33.113,78.543 "/><polygon fill="#000000" points="20.584,73.741 31.319,77.314 21.107,73.074 "/><polygon fill="#000000" points="27.542,73.063 39.232,78.445 39.579,77.095 "/><polygon fill="#000000" points="20.007,74.449 25.578,76.309 20.176,74.247 "/><polygon fill="#000000" points="39.262,80.763 45.497,80.763 39.324,80.527 "/><polygon fill="#000000" points="9.566,62.949 16.018,69.4 10.342,62.471 "/><polygon fill="#000000" points="8.599,50.71 8.599,53.367 8.761,50.657 "/><polygon fill="#000000" points="8.787,60.27 8.634,62.827 8.787,62.729 "/><polygon fill="#000000" points="10.108,61.911 10.108,55.756 9.447,62.319 "/><polygon fill="#000000" points="9.387,50.452 9.387,56.925 10.062,50.222 "/><path fill="#000000" d="M40.72,32.924c-0.007,0.014-0.021,0.02-0.028,0.032l-0.016,0.049c-0.003,0.009-0.012,0.014-0.016,0.021  c-0.003,0.007,0.002,0.014-0.002,0.021l-0.057,0.112c-0.002,0.003-0.006,0.005-0.008,0.008c-0.007,0.017,0.001,0.036-0.01,0.052  l-0.045,0.066l-0.215,0.458l-0.196,0.467v1.4l2.647-7.228L40.72,32.924z"/><polygon fill="#000000" points="8.774,63.451 12.451,67.128 9.033,63.285 "/><polygon fill="#000000" points="42.257,61.915 34.919,54.26 32.082,58.515 "/><polygon fill="#000000" points="43.686,62.284 55.422,62.284 44.713,57.443 "/><polygon fill="#000000" points="55.861,56.623 64.29,53.788 54.678,50.707 "/><polygon fill="#000000" points="42.623,66.925 55.953,66.925 43.533,62.969 "/><polygon fill="#000000" points="56.397,62.066 55.391,57.315 45.889,57.315 "/><polygon fill="#000000" points="41.723,70.807 56.193,70.807 42.471,67.585 "/><polygon fill="#000000" points="56.133,74.013 41.569,71.451 40.94,74.013 "/><polygon fill="#000000" points="69.018,58.825 71.452,62.261 78.084,55.629 "/><polygon fill="#000000" points="71.304,63.076 60.262,66.749 73.369,65.785 "/><polygon fill="#000000" points="58.383,70.704 57.646,67.524 44.836,67.524 "/><polygon fill="#000000" points="56.966,56.884 67.925,58.293 65.131,54.139 "/><polygon fill="#000000" points="81.207,58.356 71.874,62.836 73.974,65.59 "/><polygon fill="#000000" points="58.549,71.406 44.784,71.406 59.17,73.938 "/><polygon fill="#000000" points="65.756,53.993 68.589,58.205 74.398,52.396 "/><polygon fill="#000000" points="83.727,60.705 74.388,66.133 76.084,68.371 "/><polygon fill="#000000" points="69.689,57.952 78.604,54.809 75.32,52.321 "/><polygon fill="#000000" points="78.931,54.303 78.931,46.888 75.697,51.854 "/><polygon fill="#000000" points="58.255,67.498 59.001,70.718 71.576,66.519 "/><polygon fill="#000000" points="75.593,50.915 78.788,46.008 75.593,44.57 "/><polygon fill="#000000" points="71.149,47.552 74.775,44.178 71.149,42.318 "/><polygon fill="#000000" points="66.154,53.31 74.608,51.746 70.867,48.645 "/><polygon fill="#000000" points="74.993,51.287 74.993,44.795 71.304,48.228 "/><polygon fill="#000000" points="57.191,62.888 58.102,66.836 69.613,63.007 "/><polygon fill="#000000" points="82.698,57.713 75.784,64.627 84.995,59.274 "/><polygon fill="#000000" points="73.834,66.396 61.847,70.399 75.502,68.598 "/><polygon fill="#000000" points="82.362,56.747 82.362,48.657 79.605,54.804 "/><polygon fill="#000000" points="79.53,53.505 82.261,47.418 79.53,46.321 "/><polygon fill="#000000" points="72.867,61.693 82.071,57.275 79.264,55.297 "/><polygon fill="#000000" points="57.474,66.779 56.576,62.884 45.245,62.884 "/><polygon fill="#000000" points="35.124,52.808 38.154,47.89 34.658,44.37 "/><polygon fill="#000000" points="28.788,63.131 26.705,65.892 39.292,70.104 "/><polygon fill="#000000" points="31.223,58.707 25.595,53.078 28.809,62.084 "/><polygon fill="#000000" points="41.893,67.423 30.76,63.72 41.151,70.617 "/><polygon fill="#000000" points="57.039,62.193 67.203,58.806 56.016,57.367 "/><polygon fill="#000000" points="68.426,59.029 58.609,62.302 70.827,62.419 "/><polygon fill="#000000" points="26.272,65.47 28.322,62.752 21.922,56.352 "/><polygon fill="#000000" points="15.073,58.609 17.196,57.166 17.196,49.786 "/><polygon fill="#000000" points="70.55,47.554 70.55,42.253 66.412,43.717 "/><polygon fill="#000000" points="12.163,61.301 10.883,62.129 18.311,69.576 "/><polygon fill="#000000" points="22.713,67.006 17.397,57.755 15.068,59.338 "/><polygon fill="#000000" points="10.797,61.47 11.937,60.732 11.937,53.425 "/><polygon fill="#000000" points="25.31,51.945 31.101,57.736 29.121,48.784 "/><polygon fill="#000000" points="82.847,47.005 84.374,47.568 79.361,42.569 "/><polygon fill="#000000" points="82.962,55.416 85.186,48.507 82.962,47.686 "/><polygon fill="#000000" points="78.401,66.898 87.385,60.895 85.597,59.682 "/><polygon fill="#000000" points="85.259,58.728 85.259,50.234 83.016,57.203 "/><polygon fill="#000000" points="65.31,53.303 70.15,48.511 62.148,48.171 "/><polygon fill="#000000" points="75.496,43.869 77.854,44.93 73.174,40.267 "/><polygon fill="#000000" points="71.072,41.605 73.742,42.975 69.687,38.902 "/><polygon fill="#000000" points="85.535,62.852 76.488,68.897 77.795,70.57 "/><polygon fill="#000000" points="75.946,69.179 63.655,73.27 77.226,70.814 "/><polygon fill="#000000" points="59.154,71.36 59.785,73.926 72.973,69.537 "/><polygon fill="#000000" points="85.858,56.69 87.569,49.361 85.858,48.75 "/><polygon fill="#000000" points="87.963,61.28 80.952,68.271 89.225,62.096 "/><polygon fill="#000000" points="87.622,60.331 87.622,51.772 85.897,59.162 "/><polygon fill="#000000" points="79.424,45.633 81.414,46.432 76.356,41.374 "/><polygon fill="#000000" points="53.654,49.966 47.493,42.363 46.201,49.966 "/><polygon fill="#000000" points="48.178,24.028 48.165,24.026 47.307,23.722 47.516,36.136 48.618,24.159 48.182,24.031 "/><polygon fill="#000000" points="42.945,39.861 47.002,41.238 46.736,25.471 "/><polygon fill="#000000" points="47.638,41.359 52.448,41.359 49.061,25.896 "/><polygon fill="#000000" points="38.963,47.673 45.381,49.796 42.518,40.835 "/><polygon fill="#000000" points="34.725,43.587 38.311,47.197 39.412,38.23 "/><polygon fill="#000000" points="62.291,47.576 70.048,47.906 65.852,44.016 "/><polygon fill="#000000" points="61.674,47.345 65.318,43.701 58.224,40.66 "/><polygon fill="#000000" points="49.446,24.24 49.312,24.24 52.078,36.868 50.916,24.24 "/><polygon fill="#000000" points="66.144,43.175 70.159,41.754 66.144,39.272 "/><polygon fill="#000000" points="53.477,41.755 60.767,46.896 57.426,40.422 "/><polygon fill="#000000" points="54.154,25.896 57.731,39.475 59.964,37.242 "/><polygon fill="#000000" points="53.085,41.254 57.179,39.873 51.68,25.993 "/><polygon fill="#000000" points="45.133,74.612 59.796,76.545 59.334,74.612 "/><polygon fill="#000000" points="44.146,57.215 35.938,54.454 43.139,61.966 "/><polygon fill="#000000" points="42.062,66.691 42.961,62.782 33.105,59.488 "/><polygon fill="#000000" points="44.347,56.235 45.5,50.468 39.252,48.4 "/><polygon fill="#000000" points="29.199,62.568 40.76,66.415 31.675,59.107 "/><polygon fill="#000000" points="29.822,49.176 31.756,57.922 34.49,53.82 "/><polygon fill="#000000" points="59.957,77.199 46.279,77.199 60.299,78.529 "/><polygon fill="#000000" points="54.521,49.871 60.937,47.749 53.238,42.32 "/><polygon fill="#000000" points="47.938,41.959 53.796,49.188 52.568,41.959 "/><polygon fill="#000000" points="55.253,50.261 64.57,53.247 61.465,48.206 "/><polygon fill="#000000" points="43.051,40.531 45.756,49 46.97,41.861 "/><polygon fill="#000000" points="44.861,56.716 54.671,56.716 46.051,50.771 "/><polygon fill="#000000" points="55.194,56.349 54.037,50.565 46.809,50.565 "/><polygon fill="#000000" points="25.818,66.07 18.881,59.134 24.14,68.286 "/><polygon fill="#000000" points="23.705,68.853 16.526,61.652 22.41,70.509 "/><polygon fill="#000000" points="26.295,66.436 24.598,68.677 37.837,73.09 "/><polygon fill="#000000" points="17.796,55.266 20.435,46.39 17.796,47.458 "/><polygon fill="#000000" points="40.787,74.646 40.32,76.6 55.615,76.6 "/><polygon fill="#000000" points="29.009,48.1 29.009,43.254 25.65,50.884 "/><polygon fill="#000000" points="40.989,71.303 28.951,67.275 40.363,73.854 "/><polygon fill="#000000" points="20.6,54.752 20.6,47.938 18.031,56.577 "/><polygon fill="#000000" points="21.355,54.939 27.989,61.571 24.721,52.41 "/><polygon fill="#000000" points="25.165,50.499 28.694,42.479 25.165,44.289 "/><polygon fill="#000000" points="24.565,51.774 24.565,45.792 21.531,54.056 "/><polygon fill="#000000" points="17.959,57.364 25.193,64.598 20.782,55.357 "/><polygon fill="#000000" points="21.199,53.221 24.34,44.669 21.199,46.072 "/><polygon fill="#000000" points="35.33,53.617 43.774,56.457 38.54,48.408 "/><text x="0" y="115" fill="#000000" font-size="5px" font-weight="bold" font-family="'Helvetica Neue', Helvetica, Arial-Unicode, Arial, Sans-serif">Created by Lluisa Iborra</text><text x="0" y="120" fill="#000000" font-size="5px" font-weight="bold" font-family="'Helvetica Neue', Helvetica, Arial-Unicode, Arial, Sans-serif">from the Noun Project</text></svg>